# xmcd
#
# Track frame offsets:
#	150
#	16236
#	35165
#	54073
#	73803
#	91979
#	106637
#	120432
#	143652
#	161166
#	180826
#	201357
#
# Disc length: 2898 seconds
#
# Revision: 0
# Processed by: cddbd v1.5.2PL0 Copyright (c) Steve Scherf et al.
# Submitted via: EZCDAudioConverter 1.0.4.1
#
DISCID=950b500c
DTITLE=Johnny Rieger Band - Come Closer
DYEAR=2013
DGENRE=Blues
TTITLE0=Road Trip
TTITLE1=Good For You
TTITLE2=I Want To Fly
TTITLE3=Hey Boy
TTITLE4=Closer To Me
TTITLE5=Seven Months Out
TTITLE6=Free And Alive
TTITLE7=Butchery
TTITLE8=Power Comes Back
TTITLE9=Break Out
TTITLE10=Moon Wakes Up
TTITLE11=Sandy Ground
EXTD=
EXTT0=
EXTT1=
EXTT2=
EXTT3=
EXTT4=
EXTT5=
EXTT6=
EXTT7=
EXTT8=
EXTT9=
EXTT10=
EXTT11=
PLAYORDER=
